<?xml version="1.0" encoding="UTF-8" standalone="no"?>
<svg width="30px" height="30px" viewBox="0 0 30 30" version="1.1" xmlns="http://www.w3.org/2000/svg" xmlns:xlink="http://www.w3.org/1999/xlink">
    <!-- Generator: Sketch 3.6.1 (26313) - http://www.bohemiancoding.com/sketch -->
    <title>cancel</title>
    <desc>Created with Sketch.</desc>
    <defs></defs>
    <g id="Page-1" stroke="none" stroke-width="1" fill="none" fill-rule="evenodd">
        <g id="cancel" fill="#FFFFFF">
            <g id="Capa_1">
                <g id="Group">
                    <path d="M25.5630252,4.38655462 C22.7331933,1.55672269 18.9768908,0 14.9747899,0 C10.9726891,0 7.21638655,1.55672269 4.38655462,4.38655462 C1.55672269,7.21638655 0,10.9726891 0,14.9747899 C0,18.9768908 1.55672269,22.7331933 4.38655462,25.5630252 C7.21638655,28.3928571 10.9726891,29.9495798 14.9747899,29.9495798 C18.9768908,29.9495798 22.7331933,28.3928571 25.5630252,25.5630252 C28.3928571,22.7331933 29.9495798,18.9768908 29.9495798,14.9747899 C29.9495798,10.9726891 28.3928571,7.21638655 25.5630252,4.38655462 L25.5630252,4.38655462 Z M24.3592437,24.3592437 C21.8508403,26.8676471 18.5168067,28.2478992 14.9747899,28.2478992 C11.4327731,28.2478992 8.0987395,26.8676471 5.59033613,24.3592437 C0.415966387,19.1848739 0.415966387,10.7647059 5.59033613,5.59033613 C8.0987395,3.08193277 11.4327731,1.70168067 14.9747899,1.70168067 C18.5168067,1.70168067 21.8508403,3.08193277 24.3592437,5.59033613 C29.5336134,10.7647059 29.5336134,19.1848739 24.3592437,24.3592437 L24.3592437,24.3592437 Z" id="Shape"></path>
                    <path d="M21.5735294,8.37605042 C21.2394958,8.04201681 20.7037815,8.04201681 20.3697479,8.37605042 L14.9747899,13.7710084 L9.57983193,8.37605042 C9.24579832,8.04201681 8.71008403,8.04201681 8.37605042,8.37605042 C8.04201681,8.71008403 8.04201681,9.24579832 8.37605042,9.57983193 L13.7710084,14.9747899 L8.37605042,20.3697479 C8.04201681,20.7037815 8.04201681,21.2394958 8.37605042,21.5735294 C8.53991597,21.737395 8.7605042,21.8256303 8.97478992,21.8256303 C9.18907563,21.8256303 9.40966387,21.7436975 9.57352941,21.5735294 L14.9684874,16.1785714 L20.3634454,21.5735294 C20.5273109,21.737395 20.7478992,21.8256303 20.9621849,21.8256303 C21.1827731,21.8256303 21.3970588,21.7436975 21.5609244,21.5735294 C21.894958,21.2394958 21.894958,20.7037815 21.5609244,20.3697479 L16.1785714,14.9747899 L21.5735294,9.57983193 C21.907563,9.24579832 21.907563,8.71008403 21.5735294,8.37605042 L21.5735294,8.37605042 Z" id="Shape"></path>
                </g>
            </g>
        </g>
    </g>
</svg>