<?xml version="1.0" encoding="UTF-8" standalone="no"?>
<svg width="34px" height="34px" viewBox="0 0 34 34" version="1.1" xmlns="http://www.w3.org/2000/svg" xmlns:xlink="http://www.w3.org/1999/xlink">
    <!-- Generator: Sketch 3.6.1 (26313) - http://www.bohemiancoding.com/sketch -->
    <title>cancel</title>
    <desc>Created with Sketch.</desc>
    <defs></defs>
    <g id="Page-1" stroke="none" stroke-width="1" fill="none" fill-rule="evenodd">
        <g id="cancel" fill="#0099F1">
            <g id="Capa_1">
                <g id="Group">
                    <path d="M28.9714286,4.97142857 C25.7642857,1.76428571 21.5071429,0 16.9714286,0 C12.4357143,0 8.17857143,1.76428571 4.97142857,4.97142857 C1.76428571,8.17857143 0,12.4357143 0,16.9714286 C0,21.5071429 1.76428571,25.7642857 4.97142857,28.9714286 C8.17857143,32.1785714 12.4357143,33.9428571 16.9714286,33.9428571 C21.5071429,33.9428571 25.7642857,32.1785714 28.9714286,28.9714286 C32.1785714,25.7642857 33.9428571,21.5071429 33.9428571,16.9714286 C33.9428571,12.4357143 32.1785714,8.17857143 28.9714286,4.97142857 L28.9714286,4.97142857 Z M27.6071429,27.6071429 C24.7642857,30.45 20.9857143,32.0142857 16.9714286,32.0142857 C12.9571429,32.0142857 9.17857143,30.45 6.33571429,27.6071429 C0.471428571,21.7428571 0.471428571,12.2 6.33571429,6.33571429 C9.17857143,3.49285714 12.9571429,1.92857143 16.9714286,1.92857143 C20.9857143,1.92857143 24.7642857,3.49285714 27.6071429,6.33571429 C33.4714286,12.2 33.4714286,21.7428571 27.6071429,27.6071429 L27.6071429,27.6071429 Z" id="Shape"></path>
                    <path d="M24.45,9.49285714 C24.0714286,9.11428571 23.4642857,9.11428571 23.0857143,9.49285714 L16.9714286,15.6071429 L10.8571429,9.49285714 C10.4785714,9.11428571 9.87142857,9.11428571 9.49285714,9.49285714 C9.11428571,9.87142857 9.11428571,10.4785714 9.49285714,10.8571429 L15.6071429,16.9714286 L9.49285714,23.0857143 C9.11428571,23.4642857 9.11428571,24.0714286 9.49285714,24.45 C9.67857143,24.6357143 9.92857143,24.7357143 10.1714286,24.7357143 C10.4142857,24.7357143 10.6642857,24.6428571 10.85,24.45 L16.9642857,18.3357143 L23.0785714,24.45 C23.2642857,24.6357143 23.5142857,24.7357143 23.7571429,24.7357143 C24.0071429,24.7357143 24.25,24.6428571 24.4357143,24.45 C24.8142857,24.0714286 24.8142857,23.4642857 24.4357143,23.0857143 L18.3357143,16.9714286 L24.45,10.8571429 C24.8285714,10.4785714 24.8285714,9.87142857 24.45,9.49285714 L24.45,9.49285714 Z" id="Shape"></path>
                </g>
            </g>
        </g>
    </g>
</svg>