<?xml version="1.0" encoding="UTF-8" standalone="no"?>
<svg width="30px" height="30px" viewBox="0 0 30 30" version="1.1" xmlns="http://www.w3.org/2000/svg" xmlns:xlink="http://www.w3.org/1999/xlink">
    <!-- Generator: Sketch 3.6.1 (26313) - http://www.bohemiancoding.com/sketch -->
    <title>checkmark-verification-circular-button-outline</title>
    <desc>Created with Sketch.</desc>
    <defs></defs>
    <g id="Page-1" stroke="none" stroke-width="1" fill="none" fill-rule="evenodd">
        <g id="checkmark-verification-circular-button-outline" fill="#FFFFFF">
            <g id="Capa_1">
                <g id="tick">
                    <path d="M21.4068627,9.64220588 L12.6562745,18.3927941 L8.59406863,14.3297059 C8.23686275,13.9725 7.65656863,13.9725 7.29936275,14.3297059 C6.94215686,14.6869118 6.94215686,15.2672059 7.29936275,15.6244118 L11.8977941,20.2228431 C11.9287255,20.2669118 11.9475,20.317549 11.9868627,20.3569118 C12.1715686,20.5416176 12.4143627,20.6269118 12.6562255,20.6203431 C12.8980882,20.6259804 13.1418627,20.5416176 13.3265196,20.3569118 C13.3658824,20.3175 13.3846569,20.2669118 13.4155882,20.2228431 L22.7015686,10.9369118 C23.0587255,10.5797059 23.0587255,9.99941176 22.7015686,9.64220588 C22.3434314,9.285 21.7640686,9.285 21.4068627,9.64220588 L21.4068627,9.64220588 Z M15,0 C6.71529412,0 0,6.71529412 0,15 C0,23.2847059 6.71529412,30 15,30 C23.2837255,30 30,23.2847059 30,15 C30,6.71529412 23.2847059,0 15,0 L15,0 Z M15,28.125 C7.75122549,28.125 1.875,22.2487745 1.875,15 C1.875,7.75122549 7.75122549,1.875 15,1.875 C22.2487745,1.875 28.125,7.75122549 28.125,15 C28.125,22.2487745 22.2487745,28.125 15,28.125 L15,28.125 Z" id="Shape"></path>
                </g>
            </g>
        </g>
    </g>
</svg>