<?xml version="1.0" encoding="UTF-8" standalone="no"?>
<svg width="30px" height="30px" viewBox="0 0 30 30" version="1.1" xmlns="http://www.w3.org/2000/svg" xmlns:xlink="http://www.w3.org/1999/xlink">
    <!-- Generator: Sketch 3.6.1 (26313) - http://www.bohemiancoding.com/sketch -->
    <title>info</title>
    <desc>Created with Sketch.</desc>
    <defs></defs>
    <g id="Page-1" stroke="none" stroke-width="1" fill="none" fill-rule="evenodd">
        <g id="info" fill="#FFFFFF">
            <g id="Group">
                <path d="M15,29.8974359 C23.2051282,29.8974359 29.8717949,23.2307692 29.8717949,15.025641 C29.8717949,6.82051282 23.2051282,0.153846154 15,0.153846154 C6.79487179,0.153846154 0.102564103,6.82051282 0.102564103,15.025641 C0.102564103,23.2307692 6.79487179,29.8974359 15,29.8974359 L15,29.8974359 Z M15,2.20512821 C22.0512821,2.20512821 27.7948718,7.94871795 27.7948718,15 C27.7948718,22.0512821 22.0512821,27.7948718 15,27.7948718 C7.94871795,27.7948718 2.20512821,22.0512821 2.20512821,15 C2.20512821,7.94871795 7.94871795,2.20512821 15,2.20512821 L15,2.20512821 Z" id="Shape"></path>
                <path d="M12.5128205,21.5641026 C11.9230769,21.5641026 11.4615385,22.025641 11.4615385,22.6153846 C11.4615385,23.2051282 11.9230769,23.6666667 12.5128205,23.6666667 L19.4102564,23.6666667 C20,23.6666667 20.4615385,23.2051282 20.4615385,22.6153846 C20.4615385,22.025641 20,21.5641026 19.4102564,21.5641026 L17,21.5641026 L17,12.3076923 C17,11.7179487 16.5384615,11.2564103 15.9487179,11.2564103 L12.5128205,11.2564103 C11.9230769,11.2564103 11.4615385,11.7179487 11.4615385,12.3076923 C11.4615385,12.8974359 11.9230769,13.3589744 12.5128205,13.3589744 L14.9230769,13.3589744 L14.9230769,21.5641026 L12.5128205,21.5641026 L12.5128205,21.5641026 Z" id="Shape"></path>
                <circle id="Oval" cx="14.5384615" cy="7.82051282" r="1.69230769"></circle>
            </g>
        </g>
    </g>
</svg>