<?xml version="1.0" encoding="UTF-8" standalone="no"?>
<svg width="30px" height="30px" viewBox="0 0 30 30" version="1.1" xmlns="http://www.w3.org/2000/svg" xmlns:xlink="http://www.w3.org/1999/xlink">
    <!-- Generator: Sketch 3.6.1 (26313) - http://www.bohemiancoding.com/sketch -->
    <title>right-arrow</title>
    <desc>Created with Sketch.</desc>
    <defs></defs>
    <g id="Page-1" stroke="none" stroke-width="1" fill="none" fill-rule="evenodd">
        <g id="right-arrow" fill="#FFFFFF">
            <g id="Group">
                <path d="M15,29.8974359 C23.2051282,29.8974359 29.8974359,23.2307692 29.8974359,15 C29.8974359,6.76923077 23.2051282,0.102564103 15,0.102564103 C6.79487179,0.102564103 0.102564103,6.79487179 0.102564103,15 C0.102564103,23.2051282 6.79487179,29.8974359 15,29.8974359 L15,29.8974359 Z M15,2.20512821 C22.0512821,2.20512821 27.7948718,7.94871795 27.7948718,15 C27.7948718,22.0512821 22.0512821,27.7948718 15,27.7948718 C7.94871795,27.7948718 2.20512821,22.0512821 2.20512821,15 C2.20512821,7.94871795 7.94871795,2.20512821 15,2.20512821 L15,2.20512821 Z" id="Shape"></path>
                <path d="M11.5641026,22.4358974 C11.7692308,22.6410256 12.025641,22.7435897 12.3076923,22.7435897 C12.5641026,22.7435897 12.8461538,22.6410256 13.0512821,22.4358974 L19.8205128,15.6666667 C20.025641,15.4615385 20.1282051,15.2051282 20.1282051,14.9230769 C20.1282051,14.6410256 20.025641,14.3846154 19.8205128,14.1794872 L13.0512821,7.41025641 C12.6410256,7 11.974359,7 11.5641026,7.41025641 C11.1538462,7.82051282 11.1538462,8.48717949 11.5641026,8.8974359 L17.5897436,14.9230769 L11.5641026,20.9487179 C11.1538462,21.3589744 11.1538462,22.025641 11.5641026,22.4358974 L11.5641026,22.4358974 Z" id="Shape"></path>
            </g>
        </g>
    </g>
</svg>