<?xml version="1.0" encoding="UTF-8" standalone="no"?>
<svg width="50px" height="77px" viewBox="0 0 50 77" version="1.1" xmlns="http://www.w3.org/2000/svg" xmlns:xlink="http://www.w3.org/1999/xlink">
    <!-- Generator: Sketch 3.6.1 (26313) - http://www.bohemiancoding.com/sketch -->
    <title>upDown</title>
    <desc>Created with Sketch.</desc>
    <defs></defs>
    <g id="Page-1" stroke="none" stroke-width="1" fill="none" fill-rule="evenodd">
        <g id="upDown" fill="#AFAFAF">
            <g id="down-arrow" transform="translate(0.000000, 47.000000)">
                <g id="Group">
                    <path d="M1.414,4.535 L4.242,1.707 L24.828,22.292 L45.414,1.707 L48.242,4.535 L24.828,27.95 L1.414,4.535 Z" id="Shape"></path>
                    <path d="M24.828,29.364 L0,4.536 L4.242,0.294 L24.828,20.879 L45.414,0.293 L49.656,4.535 L24.828,29.364 L24.828,29.364 Z M2.828,4.536 L24.828,26.536 L46.828,4.535 L45.414,3.121 L24.828,23.707 L4.242,3.122 L2.828,4.536 L2.828,4.536 Z" id="Shape"></path>
                </g>
            </g>
            <g id="down-up" transform="translate(25.000000, 15.000000) scale(1, -1) translate(-25.000000, -15.000000) ">
                <g id="Group">
                    <path d="M1.414,4.535 L4.242,1.707 L24.828,22.292 L45.414,1.707 L48.242,4.535 L24.828,27.95 L1.414,4.535 Z" id="Shape"></path>
                    <path d="M24.828,29.364 L0,4.536 L4.242,0.294 L24.828,20.879 L45.414,0.293 L49.656,4.535 L24.828,29.364 L24.828,29.364 Z M2.828,4.536 L24.828,26.536 L46.828,4.535 L45.414,3.121 L24.828,23.707 L4.242,3.122 L2.828,4.536 L2.828,4.536 Z" id="Shape"></path>
                </g>
            </g>
        </g>
    </g>
</svg>