<?xml version="1.0" encoding="UTF-8" standalone="no"?>
<svg width="11px" height="11px" viewBox="0 0 11 11" version="1.1" xmlns="http://www.w3.org/2000/svg" xmlns:xlink="http://www.w3.org/1999/xlink">
    <!-- Generator: Sketch 3.6.1 (26313) - http://www.bohemiancoding.com/sketch -->
    <title>wrong</title>
    <desc>Created with Sketch.</desc>
    <defs></defs>
    <g id="Page-1" stroke="none" stroke-width="1" fill="none" fill-rule="evenodd">
        <g id="wrong" fill="#E83851">
            <g id="Capa_1">
                <path d="M7.19801042,5.4965625 L10.92575,1.76870833 C11.0152396,1.67921875 11.0152396,1.53415625 10.92575,1.44466667 L9.54857292,0.0671458333 C9.50560417,0.0241770833 9.44716667,0 9.38655208,0 C9.32582292,0 9.2675,0.0241770833 9.22453125,0.0671458333 L5.4965625,3.79511458 L1.76859375,0.0671458333 C1.68265625,-0.0187916667 1.53048958,-0.0187916667 1.44455208,0.0671458333 L0.0672604167,1.44466667 C-0.0222291667,1.53415625 -0.0222291667,1.67921875 0.0672604167,1.76870833 L3.79511458,5.4965625 L0.0672604167,9.22441667 C-0.0222291667,9.31390625 -0.0222291667,9.45896875 0.0672604167,9.54845833 L1.44455208,10.9258646 C1.48752083,10.9688333 1.54584375,10.9930104 1.60657292,10.9930104 C1.66730208,10.9930104 1.725625,10.9688333 1.76859375,10.9258646 L5.4965625,7.19789583 L9.22453125,10.9258646 C9.2675,10.9688333 9.32582292,10.9930104 9.38655208,10.9930104 C9.44716667,10.9930104 9.50560417,10.9688333 9.54857292,10.9258646 L10.9258646,9.54845833 C11.0153542,9.45896875 11.0153542,9.31379167 10.9258646,9.22441667 L7.19801042,5.4965625 L7.19801042,5.4965625 Z" id="Shape"></path>
            </g>
        </g>
    </g>
</svg>